<?xml version="1.0" encoding="UTF-8"?>
<svg version="1.1" xmlns="http://www.w3.org/2000/svg" width="1024" height="1024">
<path d="M0 0 C337.92 0 675.84 0 1024 0 C1024 337.92 1024 675.84 1024 1024 C686.08 1024 348.16 1024 0 1024 C0 686.08 0 348.16 0 0 Z " fill="#F5EFDE" transform="translate(0,0)"/>
<path d="M0 0 C1.18335938 0.37382812 2.36671875 0.74765625 3.5859375 1.1328125 C18.87316106 6.51363012 30.76753883 15.65200871 38.55859375 29.96875 C44.32182579 42.08871764 44.79803378 54.98007212 40.37890625 67.65234375 C34.1778697 82.70698489 25.23348408 94.29176109 13.4609375 105.51171875 C11.8943755 106.95506666 11.8943755 106.95506666 11 109 C11.94875 109.061875 12.8975 109.12375 13.875 109.1875 C25.76400563 110.98161554 35.34848788 120.13876562 42.69140625 129.125 C53.12533737 144.07511027 52.82520227 163.10946097 50.67919922 180.6171875 C49.89227145 184.91612706 48.58061127 188.93483309 47 193 C46.62617188 194.04542969 46.25234375 195.09085938 45.8671875 196.16796875 C39.10902094 213.82423835 27.0097204 226.2324622 11 236 C10.38979004 236.37366699 9.77958008 236.74733398 9.15087891 237.13232422 C-21.81834244 255.67274395 -70.13471164 266.53094216 -105.9375 258.875 C-110.83287663 257.37742447 -114.84566611 255.09874524 -118 251 C-122.23038897 242.41102846 -119.94239095 232.87640482 -117.86328125 223.96875 C-116.81571601 219.34665013 -116.08500314 214.68415348 -115.375 210 C-115.25213623 209.21818359 -115.12927246 208.43636719 -115.00268555 207.63085938 C-113.17597806 195.35377363 -112.83869883 183.02268193 -112.83203125 170.62890625 C-112.82879871 169.17618277 -112.82543336 167.72345958 -112.82194519 166.27073669 C-112.81600349 163.2360662 -112.81409961 160.20142393 -112.81469727 157.16674805 C-112.81477767 154.12762388 -112.80796452 151.08865319 -112.79418945 148.04956055 C-112.70154486 127.27268429 -113.35362003 106.7166683 -115 86 C-115.06923676 85.10092926 -115.13847351 84.20185852 -115.20980835 83.27554321 C-115.57531826 78.55415035 -115.98745511 73.83922812 -116.4375 69.125 C-116.49870026 68.46785004 -116.55990051 67.81070007 -116.62295532 67.13363647 C-117.34167659 59.46570498 -118.21223604 51.87588751 -119.6875 44.3125 C-122.80387395 28.1338778 -122.80387395 28.1338778 -119.5 20.5625 C-93.2590137 -6.33451096 -33.76377806 -10.69535827 0 0 Z " fill="#141611" transform="translate(211,338)"/>
<path d="M0 0 C4.97829584 4.48820454 7.05728217 9.70155046 7.71435547 16.25366211 C7.82155411 17.28760605 7.92875275 18.32154999 8.03919983 19.38682556 C8.14743576 20.50569656 8.25567169 21.62456757 8.3671875 22.77734375 C8.48682358 23.95659927 8.60645966 25.1358548 8.72972107 26.35084534 C9.1190405 30.21234883 9.49725471 34.07484852 9.875 37.9375 C10.0737793 39.92801408 10.27256093 41.918528 10.47196674 43.90897942 C12.42043566 63.38081382 14.19807445 82.86681603 15.79443359 102.37084961 C15.86984879 103.27834457 15.94526398 104.18583954 16.02296448 105.12083435 C16.16197752 106.79810345 16.29789328 108.47563348 16.43003845 110.15345764 C16.68991394 113.28045475 17.00340637 116.0102191 18 119 C18.45707678 117.35847907 18.91399548 115.71691404 19.37036133 114.07519531 C19.80143452 112.52607303 20.23361762 110.97725928 20.66674805 109.42871094 C22.08775486 104.33448103 23.474202 99.23254771 24.83203125 94.12109375 C27.93041264 82.53648228 31.11246136 71.03472238 35.1875 59.75 C35.49598877 58.88858398 35.80447754 58.02716797 36.12231445 57.13964844 C39.24667789 48.76492937 42.51263762 41.20859992 50 36 C53.57312995 34.80895668 56.54553322 34.79471177 60.3125 34.75 C62.25576172 34.71132813 62.25576172 34.71132813 64.23828125 34.671875 C68.30900289 35.02695352 70.60645363 35.74742954 74 38 C79.78731207 46.33863287 80.63360308 57.77046179 82.4453125 67.5625 C82.66065643 68.71564697 82.87600037 69.86879395 83.09786987 71.05688477 C83.54844189 73.47669541 83.99707782 75.89686729 84.44384766 78.31738281 C85.12344522 81.99159414 85.81335066 85.66377195 86.50390625 89.3359375 C86.94333636 91.7030085 87.38215881 94.0701924 87.8203125 96.4375 C88.12656052 98.05990601 88.12656052 98.05990601 88.43899536 99.71508789 C89.73384506 106.79605538 90.53245577 113.81726772 91 121 C91.66 121 92.32 121 93 121 C93.13462646 119.91404541 93.26925293 118.82809082 93.40795898 117.70922852 C95.70229889 100.14068826 99.18964982 82.79929762 102.57928467 65.41748047 C103.8577281 58.85619293 105.12695336 52.2931155 106.39651299 45.73010445 C106.83453808 43.47002946 107.27495825 41.21043256 107.71583557 38.95091248 C107.98915237 37.54404148 108.26234426 36.13714622 108.53540039 34.73022461 C108.6658075 34.06304885 108.79621462 33.39587309 108.93057346 32.70847988 C109.90886333 27.64337777 110.70294914 22.56312306 111.39256287 17.45118713 C112.39735801 13.39654378 114.77654028 10.57568312 118 8 C122.88737503 5.0752346 127.9588726 5.65894831 133.5 5.6875 C134.58192627 5.69168945 135.66385254 5.69587891 136.77856445 5.70019531 C145.54915912 5.82440411 153.49323208 6.20580389 161.125 10.9375 C163.391276 13.4304036 164.94275338 15.51473746 165.07543945 18.95727539 C164.24335697 25.25225672 162.76918593 31.29299501 161.1875 37.4375 C152.71716342 71.4861899 145.95855536 106.05729707 140.09928894 140.64572144 C138.46600334 150.22070634 136.65847782 159.76460828 134.875 169.3125 C134.71028198 170.19630341 134.54556396 171.08010681 134.37585449 171.99069214 C133.57943116 176.26379427 132.77906351 180.53608389 131.97167969 184.80712891 C131.28442624 188.45166267 130.62305695 192.10000745 129.97363281 195.75146484 C129.63086144 197.64029985 129.28808806 199.5291345 128.9453125 201.41796875 C128.79464325 202.28940018 128.643974 203.1608316 128.48873901 204.05867004 C127.44462347 209.7451778 126.44634103 215.13305553 121.625 218.8125 C114.70736897 221.94190451 107.12274841 221.18382827 99.6875 221.1875 C98.39392578 221.19974609 97.10035156 221.21199219 95.76757812 221.22460938 C78.74654045 221.25072861 78.74654045 221.25072861 73 216 C71.99853516 213.75219727 71.99853516 213.75219727 71.2890625 211.06640625 C71.01682861 210.04297119 70.74459473 209.01953613 70.46411133 207.96508789 C70.18720459 206.84223389 69.91029785 205.71937988 69.625 204.5625 C69.32682373 203.3861499 69.02864746 202.2097998 68.72143555 200.99780273 C65.35981511 187.19920215 63.21885993 173.19467974 61.00276184 159.17642212 C60.02982343 153.06988536 58.91698625 146.99788797 57.6875 140.9375 C57.52805908 140.14738525 57.36861816 139.35727051 57.2043457 138.54321289 C56.60145398 135.62718559 55.94261069 132.82783208 55 130 C53.59428711 136.24781707 52.19935569 142.49796998 50.8125 148.75 C50.60613922 149.67960541 50.39977844 150.60921082 50.18716431 151.56698608 C47.35780346 164.35357642 44.71790175 177.12891377 42.6730957 190.06738281 C41.1940755 199.07732512 39.36811123 210.10121283 33 217 C24.40925926 221.55761403 15.03525423 221.24281324 5.5625 221.3125 C4.25216797 221.34150391 2.94183594 221.37050781 1.59179688 221.40039062 C0.32529297 221.40876953 -0.94121094 221.41714844 -2.24609375 221.42578125 C-3.39779053 221.44036377 -4.5494873 221.45494629 -5.73608398 221.4699707 C-9.89057417 220.87176638 -11.86863052 219.80073314 -15 217 C-17.35085219 211.60445608 -18.61864201 206.53461993 -19.40698242 200.7277832 C-19.52153369 199.93966342 -19.63608496 199.15154364 -19.75410748 198.33954144 C-20.1294374 195.74439323 -20.49229296 193.14765563 -20.85546875 190.55078125 C-21.11982261 188.71177642 -21.38515248 186.87291165 -21.65139771 185.03417969 C-22.21360467 181.14340602 -22.77114614 177.25200729 -23.32485962 173.36001587 C-24.76199859 163.26765054 -26.23363398 153.18030416 -27.7109375 143.09375 C-27.85519732 142.10762537 -27.99945713 141.12150074 -28.14808846 140.10549355 C-30.29457371 125.46050114 -32.59692102 110.86439788 -35.3125 96.3125 C-38.77546886 77.74530493 -41.64314291 59.1115484 -44.38793945 40.42504883 C-44.54814072 39.33853027 -44.70834198 38.25201172 -44.87339783 37.13256836 C-45.17084277 35.11057466 -45.46585405 33.08822067 -45.75782776 31.06542969 C-46.54294578 25.71373336 -47.46963821 20.41923016 -48.57827759 15.12467957 C-49.45105821 10.72752377 -49.78786995 8.22557548 -47.3125 4.375 C-37.32529363 -4.52164936 -11.65310648 -6.72294605 0 0 Z " fill="#141611" transform="translate(457,351)"/>
<path d="M0 0 C1.16426514 0.01015137 2.32853027 0.02030273 3.52807617 0.03076172 C22.57658033 0.37479491 22.57658033 0.37479491 28.27734375 4.8046875 C32.27282804 9.25395255 32.71108496 13.59548345 32.65136719 19.27587891 C32.21344198 25.62179505 30.82046065 31.83756261 29.5625 38.0625 C26.69216231 52.45002499 23.94308823 66.62504879 24.4375 81.375 C28.88320283 75.33612721 32.87602997 69.10227875 36.75 62.6875 C40.55007359 56.39926753 44.46958449 50.22925887 48.58813477 44.14550781 C52.58918436 38.21229028 56.38681021 32.15565095 60.15209961 26.07055664 C72.21218851 6.74261756 72.21218851 6.74261756 82.4375 3.375 C94.16816314 1.78628027 109.78146597 4.60573923 119.80078125 11.1015625 C123.66701977 14.10966216 125.18765582 16.08035289 126.125 20.9375 C125.59689884 30.30249384 117.69751512 38.55066395 111.9296875 45.3671875 C109.1279992 48.74853544 106.49382658 52.22651961 103.875 55.75 C99.75368125 61.29030955 95.59416915 66.79822124 91.39526367 72.2800293 C75.57545825 90.23097671 75.57545825 90.23097671 68.8984375 111.90234375 C69.86005386 118.09710423 72.95531389 123.21165832 75.94726562 128.62646484 C77.72082679 131.89755783 79.41904816 135.20498151 81.109375 138.51953125 C87.05883236 150.17326321 93.05458225 161.79203598 99.375 173.25 C100.8244012 175.89975036 102.26976836 178.5516371 103.71240234 181.20507812 C105.00546589 183.58112356 106.30341085 185.95425675 107.60400391 188.32617188 C109.59791811 191.97070605 111.56135527 195.63060987 113.51028442 199.29937744 C114.28450712 200.7466671 115.06739348 202.18936122 115.85958862 203.62689209 C120.46304416 211.99486885 124.27672581 219.51850795 122.4375 229.375 C119.50744116 235.03304465 115.52612898 236.65663873 109.5703125 238.5625 C100.83359817 240.82838102 92.05809898 241.56817702 83.0625 241.75 C82.32572021 241.77610352 81.58894043 241.80220703 80.82983398 241.82910156 C74.54115805 241.84895084 69.2737632 240.0741252 64.66015625 235.68359375 C56.69550809 222.83825211 51.05247079 208.55907873 45.03662109 194.73754883 C40.81451636 185.10089782 36.36437191 175.57696688 31.875 166.0625 C31.51953094 165.30895233 31.16406189 164.55540466 30.79782104 163.77902222 C28.68646996 159.30682175 26.572544 154.83594332 24.4375 150.375 C23.90201538 149.20094604 23.90201538 149.20094604 23.35571289 148.00317383 C22.53308245 146.18970972 22.53308245 146.18970972 20.4375 145.375 C20.11482196 150.89528389 19.80442057 156.41618028 19.5 161.9375 C19.45326141 162.77668976 19.40652283 163.61587952 19.35836792 164.48049927 C18.81065494 174.43091313 18.37152004 184.37165359 18.1875 194.3359375 C18.17029404 195.21936325 18.15308807 196.102789 18.13536072 197.01298523 C18.05509889 201.28091718 17.9928925 205.54813376 17.95532227 209.81665039 C17.93028723 211.37647192 17.90483668 212.93628685 17.87890625 214.49609375 C17.87886597 215.19249969 17.87882568 215.88890564 17.87878418 216.60641479 C17.75678946 222.59926823 16.43602053 227.37647947 12.125 231.6875 C5.25771039 235.99951906 -1.77872777 235.71549637 -9.60058594 235.69067383 C-11.66135902 235.68753976 -13.7206566 235.71091611 -15.78125 235.73632812 C-34.95597772 235.83530973 -34.95597772 235.83530973 -42.36474609 230.27001953 C-45.1764147 226.56631298 -45.2319518 223.72428708 -45.046875 219.26171875 C-45.02904968 218.44031906 -45.01122437 217.61891937 -44.99285889 216.77262878 C-44.61301077 204.86430808 -43.14469956 193.01770297 -41.8125 181.1875 C-41.53489057 178.6535286 -41.25845549 176.11942829 -40.9831543 173.58520508 C-40.56908547 169.77450425 -40.15438405 165.96388839 -39.73588562 162.15367126 C-38.54410823 151.2967151 -37.44160003 140.43236153 -36.375 129.5625 C-35.43698992 120.03905943 -34.48143215 110.51993311 -33.42456055 101.00878906 C-32.03182552 88.47323473 -30.89399364 75.92724485 -29.82330322 63.36068726 C-29.31402872 57.40844462 -28.7920052 51.45730449 -28.26950073 45.50621033 C-27.89798073 41.26571912 -27.53092417 37.0251734 -27.18847656 32.78222656 C-26.88296216 28.99791453 -26.53854112 25.21788109 -26.1875 21.4375 C-26.07148437 19.86053345 -26.07148437 19.86053345 -25.953125 18.25170898 C-25.2969887 11.65986673 -23.6927351 7.68365899 -18.5625 3.375 C-13.0021629 -0.73444974 -6.63373871 -0.08172984 0 0 Z " fill="#141611" transform="translate(660.5625,342.625)"/>
<path d="M0 0 C0.89912109 -0.01611328 1.79824219 -0.03222656 2.72460938 -0.04882812 C10.20572342 -0.05423746 16.63877445 1.07262001 22.75 5.5625 C29.09002333 14.48890619 23.65620099 33.95597251 22.25 44.0625 C21.78928321 47.45263174 21.33330288 50.84339073 20.87890625 54.234375 C20.71640884 55.44675339 20.71640884 55.44675339 20.55062866 56.68362427 C19.20862181 66.7901102 18.4871367 76.73715868 18.4375 86.9375 C18.416875 88.00484375 18.39625 89.0721875 18.375 90.171875 C18.33748011 97.8071721 19.22982216 104.28190834 23.25 110.875 C27.12842651 113.16227717 31.30443523 113.09217979 35.6875 112.3125 C37.8490284 110.84273056 37.8490284 110.84273056 39.6875 109.3125 C40.3475 109.3125 41.0075 109.3125 41.6875 109.3125 C41.96725677 108.74781509 42.24701355 108.18313019 42.5352478 107.60133362 C43.29690677 106.08837435 44.07505958 104.5835946 44.87026978 103.08799744 C47.91307152 97.26872339 50.0580189 91.60039414 51.7109375 85.25390625 C51.96144867 84.31293594 52.21195984 83.37196564 52.47006226 82.40248108 C55.37742038 71.13934494 57.3434105 59.70676047 59.3125 48.25 C65.62088647 11.70610272 65.62088647 11.70610272 72.6875 5.3125 C82.47046889 -0.54598786 95.17963677 1.87047305 105.78857422 4.46704102 C111.83096172 6.12364222 118.41195502 8.47905008 121.76123047 14.12133789 C125.49196593 22.94668074 121.35939788 34.07893269 119.12710571 42.89233398 C118.0539774 47.1407711 117.02908109 51.40087512 116 55.66015625 C115.69368401 56.9228685 115.69368401 56.9228685 115.38117981 58.21109009 C108.83028698 85.34271985 104.85547701 113.18506372 101.1003418 140.82739258 C97.2044969 169.39091896 91.59446477 199.20239288 71.6875 221.3125 C71.09710937 221.99570312 70.50671875 222.67890625 69.8984375 223.3828125 C60.62642117 233.4439366 48.70223747 239.58774348 35.6875 243.3125 C34.59050781 243.63089844 33.49351562 243.94929687 32.36328125 244.27734375 C16.25236314 248.33781905 -5.99064543 248.49965511 -21.328125 241.5 C-27.05578867 238.07242174 -29.5516245 232.60104478 -31.3125 226.3125 C-31.70620228 223.3391963 -31.74271729 220.43335914 -31.6875 217.4375 C-31.67879883 216.64956055 -31.67009766 215.86162109 -31.66113281 215.04980469 C-31.44450388 206.43081415 -29.7683609 199.13232612 -24.3125 192.3125 C-19.52481987 189.12071325 -13.99210764 189.84648128 -8.4375 190.8125 C2.24151505 192.52114241 15.00896269 191.99754417 24.125 185.625 C32.17767647 178.72512774 37.22545142 169.76386911 38.4375 159.1875 C38.52 157.90875 38.6025 156.63 38.6875 155.3125 C37.99785156 155.78300781 37.30820312 156.25351562 36.59765625 156.73828125 C25.93179331 163.8049641 15.6088719 167.49321738 2.6875 166.3125 C-5.3243955 164.52640865 -11.81438591 161.25106671 -18.3125 156.3125 C-19.34375 155.590625 -20.375 154.86875 -21.4375 154.125 C-33.68288131 143.47832125 -37.08423523 125.6756752 -38.3125 110.3125 C-39.21027509 92.26316305 -38.31433971 74.52230369 -35.77880859 56.63378906 C-35.2783248 53.0690867 -34.81949155 49.50031206 -34.36328125 45.9296875 C-34.03559578 43.45289396 -33.70620825 40.97632492 -33.375 38.5 C-33.2296582 37.37376221 -33.08431641 36.24752441 -32.93457031 35.0871582 C-29.93441085 13.69120066 -29.93441085 13.69120066 -23.3125 6.3125 C-16.08604795 1.02959251 -8.75280023 -0.0309724 0 0 Z " fill="#141611" transform="translate(824.3125,347.6875)"/>
<path d="M0 0 C0.92941406 -0.01611328 1.85882813 -0.03222656 2.81640625 -0.04882812 C12.74890883 -0.05575456 21.43741652 2.04574669 28.8671875 8.92578125 C42.40208972 22.954446 44.36820507 47.17914381 48.09643555 65.4921875 C49.94162542 74.53901319 51.92639821 83.55144916 53.9375 92.5625 C54.10863312 93.33016693 54.27976624 94.09783386 54.45608521 94.88876343 C55.99717688 101.8011359 57.54308105 108.71242985 59.08984375 115.62353516 C63.2286863 134.12112184 67.30173882 152.63246013 71.31185913 171.15841675 C71.80913402 173.45491414 72.30719119 175.7512423 72.80606079 178.0473938 C73.50735375 181.27714796 74.20531858 184.50760371 74.90234375 187.73828125 C75.11239044 188.70340637 75.32243713 189.66853149 75.53884888 190.66290283 C77.09931906 197.92421215 78.27677239 204.9885727 78.375 212.4375 C78.41367187 214.20480469 78.41367187 214.20480469 78.453125 216.0078125 C78.09430196 219.62167315 77.28481561 221.42930117 75.125 224.3125 C67.00912335 230.29261964 53.50604637 228.42149002 43.875 228.5 C42.85744629 228.51313232 41.83989258 228.52626465 40.79150391 228.53979492 C27.20042546 228.55419929 27.20042546 228.55419929 23.125 226.3125 C20.53484174 222.21042082 19.68057692 218.67544363 19.28125 213.8828125 C19.11302734 212.07103516 19.11302734 212.07103516 18.94140625 210.22265625 C18.78478516 208.34900391 18.78478516 208.34900391 18.625 206.4375 C17.67630836 195.06464985 17.67630836 195.06464985 14.125 184.3125 C10.00006128 184.25374019 5.87523232 184.21865062 1.75 184.1875 C0.01556641 184.16236328 0.01556641 184.16236328 -1.75390625 184.13671875 C-8.56576917 184.09823365 -15.34164517 184.15593994 -21.875 186.3125 C-24.70484067 189.14234067 -24.48903179 192.14046606 -24.83984375 195.953125 C-25.00183949 197.51433471 -25.16395262 199.07553225 -25.32617188 200.63671875 C-25.57094182 203.09617889 -25.81186805 205.55595918 -26.04956055 208.01611328 C-26.28227673 210.39206656 -26.52923019 212.76623756 -26.77734375 215.140625 C-26.8430809 215.86896545 -26.90881805 216.59730591 -26.97654724 217.34771729 C-27.46132175 221.93001197 -28.15961231 225.5491944 -30.875 229.3125 C-36.07701692 232.4943393 -41.7421053 232.76891428 -47.6875 232.74609375 C-48.50065674 232.7513356 -49.31381348 232.75657745 -50.15161133 232.76197815 C-51.8592007 232.76835969 -53.56683426 232.76711192 -55.27441406 232.75854492 C-57.86864249 232.75002089 -60.46067504 232.77887065 -63.0546875 232.81054688 C-64.72395768 232.81215903 -66.39323171 232.81158108 -68.0625 232.80859375 C-68.82731689 232.81982773 -69.59213379 232.83106171 -70.38012695 232.84263611 C-75.88383959 232.77233018 -80.32945068 231.5101691 -84.875 228.3125 C-88.72381244 222.53928134 -87.58506935 215.23593707 -86.39013672 208.63342285 C-85.02331093 202.2041684 -83.40696313 195.83659403 -81.77755737 189.46966553 C-80.23206664 183.42137512 -78.742895 177.35928178 -77.25390625 171.296875 C-76.80779747 169.48526382 -76.80779747 169.48526382 -76.35267639 167.63705444 C-73.88528146 157.53692368 -71.76114905 147.39853288 -69.8125 137.1875 C-63.81070029 106.00181265 -56.61937241 75.01469918 -48.5 44.3125 C-48.30698303 43.5673111 -48.11396606 42.82212219 -47.9151001 42.05435181 C-44.42594938 28.66174503 -39.82441455 13.23857465 -27.19921875 5.71875 C-18.16498733 1.42030517 -9.907844 -0.03407099 0 0 Z " fill="#141611" transform="translate(347.875,348.6875)"/>
<path d="M0 0 C1.8125 1.13671875 1.8125 1.13671875 3.5625 2.4375 C4.201875 2.87707031 4.84125 3.31664062 5.5 3.76953125 C17.62938792 13.12716451 23.99115059 29.31947204 28.5625 43.4375 C31.34833939 40.98859104 32.73284919 38.36489694 34.375 35.0625 C37.24945453 29.64332886 39.9941673 26.22166635 45.5625 23.4375 C50.11557393 23.05807717 52.58042713 22.94646356 56.6875 25 C66.81125221 33.58318122 72.49232562 45.25978954 73.8815918 58.47216797 C74.03552525 61.65479871 74.08061595 64.81373786 74.0625 68 C74.05718262 69.69757446 74.05718262 69.69757446 74.05175781 71.42944336 C73.79517152 84.54974187 70.64059773 96.76932699 64.5625 108.4375 C64.16804687 109.28054688 63.77359375 110.12359375 63.3671875 110.9921875 C59.34998733 119.09545413 53.82204124 125.04401708 47.5625 131.4375 C46.83417969 132.21609375 46.10585938 132.9946875 45.35546875 133.796875 C35.87413183 143.74573347 23.70063061 149.33257157 9.875 149.8125 C-2.50703849 149.61595971 -10.11179537 141.67004989 -18.4375 133.4375 C-19.70997095 132.10572944 -20.98099338 130.77257204 -22.25 129.4375 C-32.65584627 118.98926739 -45.66967989 111.79557656 -58.30859375 104.44140625 C-73.47308719 95.60394841 -90.86359561 84.82245112 -96.125 67.125 C-97.22373898 57.67584479 -96.23451806 49.54929163 -91.625 41.125 C-86.17502156 34.4293122 -80.60783922 31.26831743 -72.05859375 30.1171875 C-55.90677055 29.3394111 -41.64196047 40.05098648 -29.4375 49.4375 C-29.58896484 48.89971924 -29.74042969 48.36193848 -29.89648438 47.80786133 C-37.38112473 20.82573284 -37.38112473 20.82573284 -31.84765625 8.66796875 C-25.20273702 -1.84241596 -11.32191572 -5.29865656 0 0 Z " fill="#141611" transform="translate(515.4375,205.5625)"/>
<path d="M0 0 C9.31128435 8.17303116 16.96931177 19.36844491 18.16845703 32.02490234 C18.97166268 49.27533992 16.66422761 62.20873362 5.29296875 75.671875 C-2.90490529 84.52712574 -13.35406463 89.29488095 -25.328125 90.02734375 C-40.80935772 90.60454891 -52.62268968 86.66130818 -64.17578125 76.1484375 C-74.72040925 65.09766736 -77.44572255 52.30023267 -77.34960938 37.55029297 C-77.00300539 25.00382624 -71.45025091 13.03421634 -62.92578125 3.8359375 C-45.62241799 -12.22513302 -19.17687901 -14.3917911 0 0 Z " fill="#141611" transform="translate(771.05078125,640.2890625)"/>
<path d="M0 0 C1.08649841 -0.00143509 1.08649841 -0.00143509 2.19494629 -0.00289917 C3.73152757 -0.00357973 5.26811174 -0.00173407 6.8046875 0.00244141 C9.11986037 0.00772938 11.43483367 0.00252477 13.75 -0.00390625 C30.7980351 -0.01390577 45.17121126 0.5458929 58.3046875 12.65234375 C67.81345539 22.57138843 69.05294235 35.54406419 68.87109375 48.54296875 C68.38568688 63.23481759 62.22095729 75.12039177 51.65625 85.1328125 C40.58824074 94.29405581 26.72134595 93.58251472 13.13745117 93.46899414 C10.06988815 93.44512684 7.00318088 93.44848316 3.93554688 93.45507812 C1.98697396 93.4495092 0.0384047 93.4424043 -1.91015625 93.43359375 C-2.82777237 93.43450516 -3.74538849 93.43541656 -4.69081116 93.43635559 C-5.95869728 93.42205757 -5.95869728 93.42205757 -7.25219727 93.4074707 C-8.36825096 93.40055962 -8.36825096 93.40055962 -9.5068512 93.39350891 C-11.34375 93.1328125 -11.34375 93.1328125 -13.34375 91.1328125 C-13.54758907 88.37803215 -13.62692676 85.723366 -13.6184082 82.96704102 C-13.62351913 82.1230072 -13.62863007 81.27897339 -13.63389587 80.40936279 C-13.64783365 77.61007664 -13.64683196 74.81103554 -13.64453125 72.01171875 C-13.64841594 70.07120166 -13.65275013 68.13068542 -13.65751648 66.19017029 C-13.66498774 62.1188583 -13.66468091 58.04763301 -13.65942383 53.97631836 C-13.65362857 48.75266005 -13.67055718 43.52935624 -13.6937685 38.30575657 C-13.70848318 34.29695044 -13.70938063 30.28823013 -13.70625877 26.27940178 C-13.70677315 24.35323319 -13.71203254 22.42705994 -13.72207069 20.50091743 C-13.73437374 17.8097019 -13.72768049 15.11918247 -13.71606445 12.42797852 C-13.72370819 11.62839218 -13.73135193 10.82880585 -13.73922729 10.00498962 C-13.68787507 4.63670978 -13.68787507 4.63670978 -12.00798035 2.17686462 C-8.17306456 -0.22896338 -4.35419704 -0.01270532 0 0 Z " fill="#141611" transform="translate(551.34375,633.8671875)"/>
<path d="M0 0 C1.3096875 0.01289062 2.619375 0.02578125 3.96875 0.0390625 C7.12455357 0.33928275 8.92709002 0.59666516 11.5 2.375 C12.75703183 4.88906367 12.63814086 6.63424499 12.65771484 9.44799805 C12.66797699 10.50637375 12.67823914 11.56474945 12.68881226 12.65519714 C12.69611359 13.80409927 12.70341492 14.9530014 12.7109375 16.13671875 C12.73901398 18.55925146 12.7676785 20.98177741 12.796875 23.40429688 C12.83809218 27.23136145 12.87497104 31.05830095 12.90136719 34.88549805 C12.92902432 38.57367195 12.9749075 42.26126825 13.0234375 45.94921875 C13.02669037 47.08799973 13.02994324 48.2267807 13.03329468 49.40007019 C13.14486321 56.63394991 13.69178147 61.91153048 18.375 67.6875 C22.74608281 71.15865399 26.81305 71.84342209 32.2890625 71.6796875 C35.93575432 71.17713986 37.82544439 69.86295871 40.5 67.375 C44.88718707 60.48077742 45.03476572 54.74571493 44.93359375 46.703125 C44.94319234 44.24088476 44.95296305 41.77864519 44.96289062 39.31640625 C44.95426407 35.45614467 44.93733461 31.59604756 44.9152832 27.73583984 C44.90081126 23.9954348 44.91597426 20.25599513 44.93359375 16.515625 C44.91711288 15.35830872 44.90063202 14.20099243 44.88365173 13.00860596 C44.93353165 5.0437873 44.93353165 5.0437873 47.80859375 1.64941406 C51.36535803 -0.03475771 54.13559759 -0.15619684 58.0625 -0.125 C59.36316406 -0.1353125 60.66382813 -0.145625 62.00390625 -0.15625 C66.08531174 0.46394123 66.99823185 1.1867391 69.5 4.375 C70.00120544 6.93920898 70.00120544 6.93920898 70.00170898 9.87109375 C70.01108994 10.97324219 70.02047089 12.07539062 70.03013611 13.2109375 C70.01890213 14.39945313 70.00766815 15.58796875 69.99609375 16.8125 C69.99754898 18.04355469 69.99900421 19.27460937 70.00050354 20.54296875 C69.99841755 23.82002561 69.97738834 27.09631512 69.94952393 30.37322998 C69.92974052 33.66681534 69.94810558 36.96030125 69.95898438 40.25390625 C69.95274009 42.79427726 69.94434379 45.33464406 69.93359375 47.875 C69.93652939 49.04732178 69.93946503 50.21964355 69.94248962 51.42749023 C69.7994292 64.14266013 67.41571468 75.7735499 58.6484375 85.41015625 C48.62406671 94.81549219 37.2133052 95.87893578 24.0546875 95.64453125 C13.27897044 95.19201355 5.07394964 90.94894964 -2.5 83.375 C-13.84839898 70.49108826 -12.67345081 51.92013586 -12.63037109 35.76855469 C-12.62501008 33.37949276 -12.63034663 30.99061876 -12.63671875 28.6015625 C-12.65466429 6.3051006 -12.65466429 6.3051006 -9.90625 1.7109375 C-6.50594384 -0.17689482 -3.86747838 -0.08374461 0 0 Z " fill="#141611" transform="translate(440.5,634.625)"/>
<path d="M0 0 C2.80297448 2.33581207 4.60188696 3.85054618 5.796875 7.30078125 C6.06517837 10.8661203 5.01498626 12.60717875 3.25 15.6875 C2.71890625 16.64011719 2.1878125 17.59273437 1.640625 18.57421875 C0 21 0 21 -3 23 C-7.28483008 22.71386777 -10.06387998 20.87458494 -13.5625 18.5 C-20.36969876 13.89263108 -25.83860924 13.33499779 -34 14 C-37.13069417 14.95464586 -37.13069417 14.95464586 -39 17 C-40.24401278 19.38608611 -40.24401278 19.38608611 -40 22 C-36.94876869 25.8840736 -33.76569013 27.04794474 -29.125 28.5 C-28.46878662 28.71084229 -27.81257324 28.92168457 -27.13647461 29.13891602 C-22.64919076 30.56124153 -18.11846946 31.75304624 -13.5625 32.9375 C-6.13724176 35.02664045 -1.40000153 37.96841912 3.375 44 C7.86070226 52.28129648 8.47607245 61.66041792 6 70.75 C3.36970565 77.45539828 -1.73876242 83.1279335 -8.125 86.4375 C-9.40498295 86.98642056 -10.69629111 87.51008852 -12 88 C-13.5159375 88.5878125 -13.5159375 88.5878125 -15.0625 89.1875 C-31.68568932 93.78540343 -47.82338686 90.89962603 -63.01171875 83.34375 C-65.28534939 81.8071509 -66.57109297 80.33614959 -68 78 C-68 72.44818678 -65.14629161 67.45229945 -62 63 C-59.81526391 60.91645168 -58.54443965 60.08871061 -55.5546875 59.6015625 C-52.30415885 60.10852568 -50.70492735 61.35556805 -48.125 63.375 C-40.77607094 68.73246669 -33.97608104 69.85882257 -25 69 C-21.83211216 68.18816067 -21.83211216 68.18816067 -20 66 C-18.75161619 62.59471004 -18.75161619 62.59471004 -19 59 C-21.81902262 55.38896626 -24.45855848 54.25093435 -28.8125 53.0625 C-30.52566406 52.56943359 -30.52566406 52.56943359 -32.2734375 52.06640625 C-34.11808594 51.53853516 -34.11808594 51.53853516 -36 51 C-38.65543309 50.19522377 -41.29770221 49.35450672 -43.9375 48.5 C-45.74541016 47.92765625 -45.74541016 47.92765625 -47.58984375 47.34375 C-55.11506277 44.37848615 -59.66592293 39.86329998 -63.8125 33 C-66.29518088 26.5278088 -66.0793691 18.68784444 -64.15625 12.1171875 C-60.13979419 3.24299121 -52.94281806 -2.47599843 -44 -6 C-29.67145198 -11.02756071 -12.45245808 -8.60722051 0 0 Z " fill="#141611" transform="translate(304,639)"/>
<path d="M0 0 C0.67851517 -0.00540298 1.35703033 -0.01080597 2.05610657 -0.01637268 C4.29297864 -0.02885346 6.52856202 -0.01237696 8.76538086 0.00561523 C10.32189501 0.00546025 11.87840956 0.00397131 13.43492126 0.00120544 C16.69409279 -0.00017818 19.95282404 0.01237426 23.21191406 0.03515625 C27.39082774 0.06356484 31.56901125 0.06079691 35.74797916 0.04806614 C38.96075181 0.0411143 42.17335543 0.04889208 45.38610649 0.06132317 C46.92709137 0.06584086 48.46809436 0.06617169 50.00908089 0.06225777 C52.16138096 0.05934967 54.31267125 0.07583044 56.46484375 0.09765625 C57.68965958 0.10305923 58.9144754 0.10846222 60.17640686 0.11402893 C63.16772461 0.50170898 63.16772461 0.50170898 65.06175232 1.82383728 C66.88566695 4.59090005 66.56305706 7.24851748 66.54272461 10.50170898 C66.55432617 12.35795898 66.55432617 12.35795898 66.56616211 14.25170898 C66.16772461 17.50170898 66.16772461 17.50170898 64.89428711 19.37670898 C61.72082149 21.44448749 58.3353333 21.64243019 54.62084961 21.81811523 C53.77651367 21.86000977 52.93217773 21.9019043 52.06225586 21.94506836 C51.18956055 21.98438477 50.31686523 22.02370117 49.41772461 22.06420898 C48.52956055 22.10739258 47.64139648 22.15057617 46.72631836 22.19506836 C44.54026498 22.30084514 42.35410372 22.40293445 40.16772461 22.50170898 C40.15963776 23.33442825 40.1515509 24.16714752 40.14321899 25.02510071 C40.06531787 32.8680049 39.97804087 40.71073639 39.88019753 48.55341816 C39.8302254 52.58554447 39.78389555 56.61764447 39.74584961 60.64990234 C39.7090082 64.54036493 39.6626516 68.43060783 39.6096611 72.3208828 C39.59111101 73.80601337 39.5760053 75.29119105 39.56438065 76.77639198 C39.54752839 78.85473816 39.51849696 80.93258055 39.48657227 83.01074219 C39.4732486 84.19432816 39.45992493 85.37791412 39.44619751 86.59736633 C39.16772461 89.50170898 39.16772461 89.50170898 37.16772461 92.50170898 C35.13647461 92.88989258 35.13647461 92.88989258 32.66772461 92.90014648 C31.33741211 92.90594727 31.33741211 92.90594727 29.98022461 92.91186523 C28.58803711 92.89446289 28.58803711 92.89446289 27.16772461 92.87670898 C26.23959961 92.88831055 25.31147461 92.89991211 24.35522461 92.91186523 C23.02491211 92.90606445 23.02491211 92.90606445 21.66772461 92.90014648 C20.85303711 92.8967627 20.03834961 92.89337891 19.19897461 92.88989258 C18.19350586 92.6977417 18.19350586 92.6977417 17.16772461 92.50170898 C14.79265542 88.9391052 14.92896613 87.44916645 14.95654297 83.22607422 C14.95992172 81.93140732 14.96330048 80.63674042 14.96678162 79.30284119 C14.98031511 77.88866111 14.99391222 76.47448163 15.00756836 75.06030273 C15.01383901 73.61206968 15.01907902 72.16383182 15.02333069 70.71559143 C15.03663328 66.90390154 15.06106805 63.09237188 15.08868408 59.28076172 C15.13180724 53.17605017 15.16149151 47.07129469 15.18472481 40.96647835 C15.19496682 38.83146906 15.21201411 36.69658903 15.22972107 34.56163025 C15.23625198 33.27011551 15.2427829 31.97860077 15.24951172 30.64794922 C15.25776474 29.50672104 15.26601776 28.36549286 15.27452087 27.18968201 C15.35343711 24.53034029 15.35343711 24.53034029 14.16772461 22.50170898 C13.51698975 22.48712646 12.86625488 22.47254395 12.19580078 22.45751953 C9.24834155 22.3830635 6.30201819 22.28639633 3.35522461 22.18920898 C2.33106445 22.16665039 1.3069043 22.1440918 0.25170898 22.12084961 C-0.73120117 22.08540039 -1.71411133 22.04995117 -2.72680664 22.01342773 C-3.63277588 21.98724365 -4.53874512 21.96105957 -5.47216797 21.93408203 C-8.26301235 21.42279772 -9.18154842 20.78230106 -10.83227539 18.50170898 C-11.26586914 15.28686523 -11.26586914 15.28686523 -11.26977539 11.56420898 C-11.28911133 10.33831055 -11.30844727 9.11241211 -11.32836914 7.84936523 C-10.31135522 0.98652324 -6.38119779 0.00086516 0 0 Z " fill="#131510" transform="translate(340.832275390625,634.498291015625)"/>
<path d="M0 0 C1.0415625 -0.01611328 2.083125 -0.03222656 3.15625 -0.04882812 C10.18384875 -0.05326474 16.23447103 0.39033115 21.98828125 4.85546875 C27.16966424 11.29016562 29.64323237 17.31082421 29.34765625 25.6640625 C28.29339584 33.69539459 25.19428255 40.98782515 19 46.3125 C7.59022783 54.88535967 -7.84213387 58.62480587 -22 58.3125 C-23.42415718 55.46418564 -23.10784046 53.07883452 -23.0859375 49.89453125 C-23.08193939 49.23596634 -23.07794128 48.57740143 -23.07382202 47.89888 C-23.05690731 45.70326505 -23.03001452 43.50797385 -23 41.3125 C-22.98972778 40.54951599 -22.97945557 39.78653198 -22.96887207 39.00042725 C-22.89835898 34.16049373 -22.79994998 29.32168183 -22.68261719 24.48266602 C-22.64366767 22.80437113 -22.60894901 21.12597355 -22.578125 19.44750977 C-22.53274958 16.98943844 -22.474862 14.53195089 -22.4140625 12.07421875 C-22.40251129 11.3222673 -22.39096008 10.57031586 -22.37905884 9.795578 C-22.2282177 4.5407177 -22.2282177 4.5407177 -20 2.3125 C-13.32925029 0.12752064 -6.97947908 -0.02159492 0 0 Z " fill="#F4EFDF" transform="translate(176,482.6875)"/>
<path d="M0 0 C1.1034375 -0.02578125 2.206875 -0.0515625 3.34375 -0.078125 C6.85375095 0.28677609 8.69150405 1.15380375 11.5 3.25 C13.06566807 6.38133613 12.59698935 9.70632363 12.5534668 13.14038086 C12.54707184 13.95515396 12.54067688 14.76992706 12.53408813 15.60939026 C12.51124718 18.31128962 12.48065462 21.01303158 12.44921875 23.71484375 C12.42999456 25.58809747 12.4109385 27.46135291 12.39204407 29.33460999 C12.35101812 33.26470834 12.30578782 37.1947335 12.25805664 41.12475586 C12.19746455 46.16660781 12.15055725 51.20848429 12.10722637 56.25051022 C12.07190102 60.12041335 12.02765773 63.9901767 11.98087502 67.85995674 C11.95979861 69.71909866 11.94190557 71.57827944 11.9272213 73.43748283 C11.90569502 76.03527255 11.87178498 78.63261661 11.8347168 81.23022461 C11.82911995 82.38752579 11.82911995 82.38752579 11.82341003 83.56820679 C11.75652208 87.32421629 11.63576993 89.04634511 9.5 92.25 C5.97111581 93.42629473 2.73668023 93.47181837 -0.9375 93.5 C-2.91556641 93.53867187 -2.91556641 93.53867187 -4.93359375 93.578125 C-8.75328583 93.22669659 -9.89230504 92.95923711 -12.5 90.25 C-12.98774719 87.40431213 -12.98774719 87.40431213 -12.9699707 83.89282227 C-12.97289627 82.57617081 -12.97582184 81.25951935 -12.97883606 79.90296936 C-12.96169121 78.45744182 -12.94399108 77.01192077 -12.92578125 75.56640625 C-12.92084949 74.07161394 -12.91755574 72.57681542 -12.91581726 71.08201599 C-12.90816219 67.93525675 -12.88759059 64.78894981 -12.85668945 61.64233398 C-12.81768761 57.66976075 -12.79924563 53.69748266 -12.78926277 49.72474098 C-12.74729934 33.54731469 -12.57367315 17.39799364 -11.5 1.25 C-7.61000595 0.42679939 -3.9835285 0.05584386 0 0 Z " fill="#141611" transform="translate(657.5,634.75)"/>
<path d="M0 0 C6.17168903 4.15402146 8.71248794 9.13746382 11 16 C11.76073702 25.74328567 11.00931694 33.72494702 4.625 41.375 C-0.75138335 47.05634627 -5.48483577 48.90638414 -13.1875 49.3125 C-20.04667391 49.20944063 -25.86934775 46.99169667 -30.875 42.3125 C-36.65899149 33.29627797 -38.33032541 25.86239618 -37 15 C-34.9890076 8.40223345 -31.77004777 3.73356032 -26 0 C-17.66997634 -4.4258873 -8.32768609 -4.45100464 0 0 Z " fill="#F4EFDF" transform="translate(755,658)"/>
<path d="M0 0 C5.89194647 5.89194647 8.14538328 11.1467313 8.5 19.3125 C8.25384283 27.27158177 6.24114402 32.69446239 0.640625 38.40625 C-7.53132048 45.49175186 -17.19834301 51.29447521 -28 53 C-32.47619048 52.52380952 -32.47619048 52.52380952 -34 51 C-34.15940031 49.07923576 -34.25155089 47.15283805 -34.31640625 45.2265625 C-34.35878418 44.01742187 -34.40116211 42.80828125 -34.44482422 41.5625 C-34.60276103 36.27784245 -34.75835309 30.99323826 -34.89599609 25.70800781 C-34.98658474 22.47828879 -35.10707438 19.25168474 -35.23828125 16.0234375 C-35.28570615 14.34900976 -35.331433 12.67453256 -35.375 11 C-35.41310791 10.24928223 -35.45121582 9.49856445 -35.49047852 8.72509766 C-35.55176954 4.81972425 -35.14728812 3.18616621 -32.69140625 0.08203125 C-24.29602203 -6.41251126 -8.40205697 -6.58704952 0 0 Z " fill="#F4EEDE" transform="translate(187,384)"/>
<path d="M0 0 C7.92604643 0.06096959 14.14437308 2.06258044 21 5.9375 C27.21684958 12.88574365 28.90792938 19.73568161 28.546875 28.97265625 C27.62823118 36.24525313 24.4964671 42.29134597 19.125 47.3125 C11.41361646 52.1096979 2.9180741 52.00460003 -5.875 51.3125 C-7.4890925 49.6984075 -7.00234318 47.94773592 -7.00439453 45.71679688 C-7.00754669 44.73908325 -7.01069885 43.76136963 -7.01394653 42.75402832 C-7.0119223 41.69051147 -7.00989807 40.62699463 -7.0078125 39.53125 C-7.00876923 38.44743042 -7.00972595 37.36361084 -7.01071167 36.24694824 C-7.01139365 33.9502761 -7.00953811 31.65360205 -7.00537109 29.35693359 C-7.00002312 25.82775572 -7.0053155 22.29870513 -7.01171875 18.76953125 C-7.01105797 16.54427055 -7.00977682 14.31900993 -7.0078125 12.09375 C-7.00983673 11.03023315 -7.01186096 9.96671631 -7.01394653 8.87097168 C-7.01079437 7.89325806 -7.00764221 6.91554443 -7.00439453 5.90820312 C-7.00359894 5.04296021 -7.00280334 4.17771729 -7.00198364 3.28625488 C-6.73235201 -0.90473178 -3.53451922 0.0790069 0 0 Z " fill="#F5EFE0" transform="translate(568.875,653.6875)"/>
<path d="M0 0 C1.87353516 0.56176758 1.87353516 0.56176758 4 2 C4.89073258 4.40184455 5.49856698 6.52813508 6.0234375 9.01171875 C6.18637299 9.72075851 6.34930847 10.42979828 6.5171814 11.1603241 C7.0324425 13.43617732 7.51979323 15.71650983 8 18 C8.15617798 18.73269104 8.31235596 19.46538208 8.4732666 20.22027588 C9.5722178 25.40835787 10.60458589 30.60850067 11.625 35.8125 C11.92674146 37.33275019 12.22882403 38.85293271 12.53125 40.37304688 C18.00898604 67.98202793 18.00898604 67.98202793 16 72 C13.24023438 72.42651367 13.24023438 72.42651367 9.59375 72.66796875 C7.64275391 72.80041992 7.64275391 72.80041992 5.65234375 72.93554688 C4.97155762 72.97671631 4.29077148 73.01788574 3.58935547 73.06030273 C1.50787408 73.18702064 -0.57206464 73.3296053 -2.65234375 73.47460938 C-10.13219079 73.96016932 -10.13219079 73.96016932 -13 74 C-14 73 -14 73 -14.15625 69.11328125 C-14.08831102 63.71743988 -13.37020392 58.50619339 -12.5 53.1875 C-12.24694092 51.62298096 -12.24694092 51.62298096 -11.98876953 50.02685547 C-10.26355336 39.8265332 -8.10102873 29.72589506 -5.875 19.625 C-5.69928467 18.82025238 -5.52356934 18.01550476 -5.3425293 17.18637085 C-4.83763756 14.88546255 -4.32309106 12.58695998 -3.8046875 10.2890625 C-3.6526889 9.59638779 -3.50069031 8.90371307 -3.34408569 8.19004822 C-2.59707722 4.93918938 -1.87677721 2.81516582 0 0 Z " fill="#F3EEDF" transform="translate(344,411)"/>
<path d="M0 0 C0.33 0 0.66 0 1 0 C1.33 4.95 1.66 9.9 2 15 C2.33 15 2.66 15 3 15 C3 32.49 3 49.98 3 68 C2.67 68 2.34 68 2 68 C1.505 65.525 1.505 65.525 1 63 C0.67 63 0.34 63 0 63 C0 42.21 0 21.42 0 0 Z " fill="#1B1C16" transform="translate(99,449)"/>
<path d="M0 0 C1.05904289 0.00424484 1.05904289 0.00424484 2.13948059 0.00857544 C4.39133758 0.01975786 6.64279477 0.0448583 8.89453125 0.0703125 C10.42252029 0.08034483 11.95051558 0.08947024 13.47851562 0.09765625 C17.22150788 0.11969078 20.96420181 0.15420683 24.70703125 0.1953125 C18.62349737 3.33186087 13.05718997 3.35154389 6.33203125 3.3203125 C5.50703125 3.32417969 4.68203125 3.32804688 3.83203125 3.33203125 C-0.98194332 3.32439002 -5.54629667 3.00135115 -10.29296875 2.1953125 C-6.69852692 -0.20098205 -4.14435223 -0.06250081 0 0 Z " fill="#1E1E19" transform="translate(830.29296875,590.8046875)"/>
<path d="M0 0 C1.32 0.33 2.64 0.66 4 1 C3.01 1 2.02 1 1 1 C1 7.6 1 14.2 1 21 C0.67 21 0.34 21 0 21 C-0.33 28.92 -0.66 36.84 -1 45 C-1.33 45 -1.66 45 -2 45 C-2.04939701 39.07349874 -2.08571817 33.14711703 -2.10986328 27.22045898 C-2.11992773 25.20383619 -2.13358047 23.18722801 -2.15087891 21.1706543 C-2.17510769 18.27388911 -2.18647859 15.37731669 -2.1953125 12.48046875 C-2.20563507 11.57725388 -2.21595764 10.674039 -2.22659302 9.74345398 C-2.22674408 8.90280899 -2.22689514 8.062164 -2.22705078 7.19604492 C-2.231492 6.45658127 -2.23593323 5.71711761 -2.24050903 4.95524597 C-2 3 -2 3 0 0 Z " fill="#EBE6D8" transform="translate(645,635)"/>
<path d="M0 0 C1.05703125 -0.00128906 2.1140625 -0.00257813 3.203125 -0.00390625 C4.87375 0.00189453 4.87375 0.00189453 6.578125 0.0078125 C7.67640625 0.00394531 8.7746875 0.00007812 9.90625 -0.00390625 C11.49953125 -0.00197266 11.49953125 -0.00197266 13.125 0 C14.09791992 0.00112793 15.07083984 0.00225586 16.07324219 0.00341797 C18.75705384 0.12947435 21.21315509 0.53297772 23.828125 1.1328125 C23.828125 1.4628125 23.828125 1.7928125 23.828125 2.1328125 C18.0857164 3.35356263 12.41961206 3.31650945 6.578125 3.3203125 C5.57265625 3.33255859 4.5671875 3.34480469 3.53125 3.35742188 C2.5721875 3.35935547 1.613125 3.36128906 0.625 3.36328125 C-0.68452637 3.36944458 -0.68452637 3.36944458 -2.02050781 3.37573242 C-4.171875 3.1328125 -4.171875 3.1328125 -6.171875 1.1328125 C-4.47562193 -0.56344057 -2.31848982 0.0027004 0 0 Z " fill="#21201B" transform="translate(116.171875,594.8671875)"/>
<path d="M0 0 C0.66 0 1.32 0 2 0 C6.13605612 8.27211224 2.39636048 23.21040949 1 32 C0.67 32 0.34 32 0 32 C0 21.44 0 10.88 0 0 Z " fill="#24241E" transform="translate(667,638)"/>
<path d="M0 0 C0 0.99 0 1.98 0 3 C-2.35241929 5.35241929 -8.21543113 4.18542134 -11.375 4.1875 C-12.34695313 4.19974609 -13.31890625 4.21199219 -14.3203125 4.22460938 C-15.72023438 4.22750977 -15.72023438 4.22750977 -17.1484375 4.23046875 C-18.43500244 4.23663208 -18.43500244 4.23663208 -19.74755859 4.24291992 C-22 4 -22 4 -25 2 C-12.625 1.01 -12.625 1.01 0 0 Z " fill="#1E1E18" transform="translate(360,482)"/>
<path d="M0 0 C0.94101562 0.00322266 1.88203125 0.00644531 2.8515625 0.00976562 C3.83640625 0.01814453 4.82125 0.02652344 5.8359375 0.03515625 C6.82851563 0.03966797 7.82109375 0.04417969 8.84375 0.04882812 C11.2995391 0.0606348 13.75520854 0.07710225 16.2109375 0.09765625 C10.21948101 4.09196058 2.22326183 3.71700825 -4.7890625 3.09765625 C-5.4490625 2.43765625 -6.1090625 1.77765625 -6.7890625 1.09765625 C-4.33631109 -0.12871945 -2.7384844 -0.01649689 0 0 Z " fill="#E0DDD4" transform="translate(823.7890625,536.90234375)"/>
<path d="M0 0 C0.66 0 1.32 0 2 0 C2.66 6.6 3.32 13.2 4 20 C3.34 20.33 2.68 20.66 2 21 C0.10462904 14.23081801 -1.53249067 8.05550139 -1 1 C-0.67 0.67 -0.34 0.34 0 0 Z " fill="#DFDCD2" transform="translate(88,363)"/>
<path d="M0 0 C2.6110511 2.27626781 2.97127257 2.70554386 3.328125 6.36328125 C3.30234375 7.66652344 3.2765625 8.96976562 3.25 10.3125 C3.22679687 12.25576172 3.22679687 12.25576172 3.203125 14.23828125 C3.0229905 17.57423355 2.62995926 20.72319578 2 24 C1.67 24 1.34 24 1 24 C-0.06309567 18.82682579 -0.11693938 13.87630664 -0.0625 8.625 C-0.05798828 7.79355469 -0.05347656 6.96210938 -0.04882812 6.10546875 C-0.03713164 4.07028103 -0.01919935 2.03513077 0 0 Z " fill="#21221B" transform="translate(150,403)"/>
<path d="M0 0 C0.33 0 0.66 0 1 0 C1.06058594 1.04800781 1.12117188 2.09601562 1.18359375 3.17578125 C1.26801738 4.55470048 1.35266447 5.93360605 1.4375 7.3125 C1.47681641 8.00279297 1.51613281 8.69308594 1.55664062 9.40429688 C1.74927415 12.47161535 2.02322717 15.06968152 3 18 C3.66 18.33 4.32 18.66 5 19 C4.01 19 3.02 19 2 19 C0 16 0 16 0 13 C-0.66 13 -1.32 13 -2 13 C-2.16682272 8.07872966 -2.24828052 4.49656104 0 0 Z " fill="#E3E1D8" transform="translate(260,559)"/>
<path d="M0 0 C2.45862401 -0.05383848 4.9160755 -0.09359038 7.375 -0.125 C8.42300781 -0.15013672 8.42300781 -0.15013672 9.4921875 -0.17578125 C11.32897486 -0.19344267 13.16601963 -0.10303261 15 0 C15.66 0.66 16.32 1.32 17 2 C11.06 2.33 5.12 2.66 -1 3 C-0.67 2.01 -0.34 1.02 0 0 Z " fill="#100F0B" transform="translate(433,635)"/>
<path d="M0 0 C0.33 0 0.66 0 1 0 C1.33 4.62 1.66 9.24 2 14 C3.98 14 5.96 14 8 14 C8.66 14.66 9.32 15.32 10 16 C7.03 16.33 4.06 16.66 1 17 C-0.53266582 13.93466836 -0.10276471 10.73245728 -0.0625 7.375 C-0.05798828 6.66859375 -0.05347656 5.9621875 -0.04882812 5.234375 C-0.03703875 3.48954725 -0.01910324 1.744763 0 0 Z " fill="#D7D4C8" transform="translate(153,524)"/>
<path d="M0 0 C0.33 0 0.66 0 1 0 C1 4.29 1 8.58 1 13 C0.67 13 0.34 13 0 13 C-0.33 15.64 -0.66 18.28 -1 21 C-1.33 21 -1.66 21 -2 21 C-2.05390357 18.06225537 -2.0936255 15.12549768 -2.125 12.1875 C-2.14175781 11.35412109 -2.15851563 10.52074219 -2.17578125 9.66210938 C-2.18222656 8.85966797 -2.18867188 8.05722656 -2.1953125 7.23046875 C-2.20578613 6.49207764 -2.21625977 5.75368652 -2.22705078 4.99291992 C-2 3 -2 3 0 0 Z " fill="#1B1C16" transform="translate(153,511)"/>
<path d="M0 0 C2.70238949 4.05358424 2.22937614 6.18310104 2 11 C1.67 11.66 1.34 12.32 1 13 C0.64386903 14.66194453 0.30791692 16.328451 0 18 C-0.66 18 -1.32 18 -2 18 C-1.34 12.06 -0.68 6.12 0 0 Z " fill="#20201B" transform="translate(792,378)"/>
<path d="M0 0 C2.05279359 4.10558718 2.2216942 5.80206685 2.125 10.25 C2.10695313 11.32765625 2.08890625 12.4053125 2.0703125 13.515625 C2.03550781 14.74539063 2.03550781 14.74539063 2 16 C1.01 16 0.02 16 -1 16 C-0.67 10.72 -0.34 5.44 0 0 Z " fill="#1D1E18" transform="translate(621,504)"/>
<path d="M0 0 C0.33 0 0.66 0 1 0 C1.08071788 2.79224073 1.14035408 5.58216566 1.1875 8.375 C1.21263672 9.1690625 1.23777344 9.963125 1.26367188 10.78125 C1.29004405 12.85586148 1.15486462 14.93100865 1 17 C0.01 17.66 -0.98 18.32 -2 19 C-1.85761163 16.95809019 -1.71092972 14.91647955 -1.5625 12.875 C-1.48128906 11.73804688 -1.40007813 10.60109375 -1.31640625 9.4296875 C-1.02269035 6.2459522 -0.56875687 3.14489093 0 0 Z " fill="#E0DDD5" transform="translate(928,464)"/>
<path d="M0 0 C0.66 0 1.32 0 2 0 C2.19477739 1.62414378 2.38059458 3.24936423 2.5625 4.875 C2.66691406 5.77992188 2.77132812 6.68484375 2.87890625 7.6171875 C3 10 3 10 2 12 C1.34 12 0.68 12 0 12 C-0.19477739 10.37585622 -0.38059458 8.75063577 -0.5625 7.125 C-0.66691406 6.22007812 -0.77132812 5.31515625 -0.87890625 4.3828125 C-1 2 -1 2 0 0 Z " fill="#EAE6DB" transform="translate(548,460)"/>
<path d="M0 0 C2.10388569 -0.05402274 4.20816714 -0.09280256 6.3125 -0.125 C8.07013672 -0.15980469 8.07013672 -0.15980469 9.86328125 -0.1953125 C13 0 13 0 16 2 C13.24921116 2.91692961 11.64051087 3.10886083 8.8125 3.0625 C6.9253125 3.0315625 6.9253125 3.0315625 5 3 C5 2.34 5 1.68 5 1 C3.35 1 1.7 1 0 1 C0 0.67 0 0.34 0 0 Z " fill="#1E1E18" transform="translate(651,635)"/>
<path d="M0 0 C0.88945312 0.04833984 1.77890625 0.09667969 2.6953125 0.14648438 C3.61570312 0.20255859 4.53609375 0.25863281 5.484375 0.31640625 C6.42023438 0.36861328 7.35609375 0.42082031 8.3203125 0.47460938 C10.62536387 0.6039745 12.92994789 0.73892659 15.234375 0.87890625 C15.234375 1.20890625 15.234375 1.53890625 15.234375 1.87890625 C11.79778792 2.10470979 8.36020282 2.30653322 4.921875 2.50390625 C3.94541016 2.56835938 2.96894531 2.6328125 1.96289062 2.69921875 C0.55620117 2.7765625 0.55620117 2.7765625 -0.87890625 2.85546875 C-2.17501831 2.934021 -2.17501831 2.934021 -3.49731445 3.01416016 C-5.765625 2.87890625 -5.765625 2.87890625 -8.765625 0.87890625 C-5.71719635 -0.03011314 -3.16900864 -0.18282742 0 0 Z " fill="#1C1E18" transform="translate(268.765625,632.12109375)"/>
<path d="M0 0 C0.33 0 0.66 0 1 0 C1 4.29 1 8.58 1 13 C0.01 13.33 -0.98 13.66 -2 14 C-2.05389087 12.04196493 -2.09274217 10.08351091 -2.125 8.125 C-2.14820313 7.03445313 -2.17140625 5.94390625 -2.1953125 4.8203125 C-2 2 -2 2 0 0 Z " fill="#22231C" transform="translate(310,692)"/>
<path d="M0 0 C2.15377564 2.62198774 3.40072174 4.64404172 4 8 C2.02 8.33 0.04 8.66 -2 9 C-2 6.36 -2 3.72 -2 1 C-1.34 0.67 -0.68 0.34 0 0 Z " fill="#EEE9D9" transform="translate(682,490)"/>
<path d="M0 0 C0.99 0 1.98 0 3 0 C3.125 2.875 3.125 2.875 3 6 C2.34 6.66 1.68 7.32 1 8 C-1.3828125 7.9765625 -1.3828125 7.9765625 -4.125 7.625 C-5.03507812 7.51414062 -5.94515625 7.40328125 -6.8828125 7.2890625 C-7.93082031 7.14597656 -7.93082031 7.14597656 -9 7 C-9 6.67 -9 6.34 -9 6 C-6.03 6 -3.06 6 0 6 C0 4.02 0 2.04 0 0 Z " fill="#E5E0D3" transform="translate(358,475)"/>
<path d="M0 0 C1.5 1.3125 1.5 1.3125 3 3 C3 3.99 3 4.98 3 6 C3.66 6 4.32 6 5 6 C5 9.3 5 12.6 5 16 C4.01 15.67 3.02 15.34 2 15 C1.93941406 14.25234375 1.87882813 13.5046875 1.81640625 12.734375 C1.73261719 11.74953125 1.64882813 10.7646875 1.5625 9.75 C1.48128906 8.77546875 1.40007813 7.8009375 1.31640625 6.796875 C1.04925416 4.43538247 0.64628032 2.28098935 0 0 Z " fill="#E5E1D4" transform="translate(847,353)"/>
<path d="M0 0 C4.29 0 8.58 0 13 0 C13 0.99 13 1.98 13 3 C9.04 3 5.08 3 1 3 C0.67 2.01 0.34 1.02 0 0 Z " fill="#1B1C16" transform="translate(518,352)"/>
<path d="M0 0 C4.29 0 8.58 0 13 0 C13 0.99 13 1.98 13 3 C8.48382401 3.07654536 4.40914783 3.10228696 0 2 C0 1.34 0 0.68 0 0 Z " fill="#EAE6DA" transform="translate(563,654)"/>
<path d="M0 0 C0 4.08718063 -1.70017819 5.3907287 -4.33203125 8.34765625 C-6.35075121 10.34746549 -8.46274944 11.73137472 -11 13 C-9.46356148 9.31930113 -7.21849055 7.01224796 -4.375 4.25 C-3.55773437 3.45078125 -2.74046875 2.6515625 -1.8984375 1.828125 C-0.95871094 0.92320312 -0.95871094 0.92320312 0 0 Z " fill="#F8F6EF" transform="translate(899,565)"/>
<path d="M0 0 C2.58926331 2.58926331 2.37398043 4.02705279 2.625 7.625 C2.69976562 8.62789063 2.77453125 9.63078125 2.8515625 10.6640625 C2.90054687 11.43492187 2.94953125 12.20578125 3 13 C2.01 13.33 1.02 13.66 0 14 C0 9.38 0 4.76 0 0 Z " fill="#E7E4DA" transform="translate(412,391)"/>
<path d="M0 0 C0.33 0.66 0.66 1.32 1 2 C-3.34492771 3.13896163 -7.38620785 2.93100471 -11.8125 2.5625 C-12.85180664 2.48418945 -12.85180664 2.48418945 -13.91210938 2.40429688 C-15.60854437 2.27560181 -17.30434863 2.13863816 -19 2 C-19 1.67 -19 1.34 -19 1 C-16.77100213 0.83109082 -14.54179338 0.66496313 -12.3125 0.5 C-10.45044922 0.36078125 -10.45044922 0.36078125 -8.55078125 0.21875 C-5.68500671 0.04220063 -2.86900043 -0.04388528 0 0 Z " fill="#303028" transform="translate(192,481)"/>
<path d="M0 0 C0.66 0.33 1.32 0.66 2 1 C2 5.95 2 10.9 2 16 C1.67 16 1.34 16 1 16 C0.67 13.69 0.34 11.38 0 9 C-0.33 9 -0.66 9 -1 9 C-1.09765625 2.84765625 -1.09765625 2.84765625 -1 1 C-0.67 0.67 -0.34 0.34 0 0 Z " fill="#1F211A" transform="translate(99,446)"/>
<path d="M0 0 C0.33 0.66 0.66 1.32 1 2 C1.66 2 2.32 2 3 2 C3 4.64 3 7.28 3 10 C2.01 10 1.02 10 0 10 C0 6.7 0 3.4 0 0 Z " fill="#E8E5D9" transform="translate(947,364)"/>
<path d="M0 0 C2 2 2 2 2.1953125 4.6015625 C2.17210937 5.59929687 2.14890625 6.59703125 2.125 7.625 C2.10695313 8.62789063 2.08890625 9.63078125 2.0703125 10.6640625 C2.03550781 11.82035156 2.03550781 11.82035156 2 13 C0.08854396 11.39538295 -0.91104348 10.53479815 -1.328125 8.02734375 C-1.11111111 2.22222222 -1.11111111 2.22222222 0 0 Z " fill="#1F1F19" transform="translate(787,448)"/>
<path d="M0 0 C1.51953125 1.20703125 1.51953125 1.20703125 3 3 C3.07421875 5.26171875 3.07421875 5.26171875 2.6875 7.6875 C2.50767578 8.89986328 2.50767578 8.89986328 2.32421875 10.13671875 C2.21722656 10.75160156 2.11023438 11.36648438 2 12 C-0.13586678 8.79619983 -0.23132175 7.98060033 -0.125 4.3125 C-0.10695313 3.50425781 -0.08890625 2.69601562 -0.0703125 1.86328125 C-0.04710937 1.24839844 -0.02390625 0.63351562 0 0 Z " fill="#23221D" transform="translate(619,365)"/>
<path d="M0 0 C0.99 0 1.98 0 3 0 C2.46274105 3.37705625 1.88935377 6.696686 1 10 C0.01 10 -0.98 10 -2 10 C-1.34 6.7 -0.68 3.4 0 0 Z " fill="#E5E1D5" transform="translate(587,291)"/>
<path d="M0 0 C0 0.66 0 1.32 0 2 C-3.16240582 4.10827055 -4.50657469 4.33817465 -8.1875 4.625 C-9.08855469 4.69976563 -9.98960937 4.77453125 -10.91796875 4.8515625 C-11.60503906 4.90054688 -12.29210937 4.94953125 -13 5 C-10.54278328 3.36185552 -8.65432189 2.38047801 -5.9375 1.375 C-5.24527344 1.11460937 -4.55304688 0.85421875 -3.83984375 0.5859375 C-2 0 -2 0 0 0 Z " fill="#ECEAE2" transform="translate(204,583)"/>
<path d="M0 0 C0.66 0.99 1.32 1.98 2 3 C3.299375 3.7734375 3.299375 3.7734375 4.625 4.5625 C5.40875 5.036875 6.1925 5.51125 7 6 C7 6.66 7 7.32 7 8 C4.125 7.3125 4.125 7.3125 1 6 C-0.375 3.375 -0.375 3.375 -1 1 C-0.67 0.67 -0.34 0.34 0 0 Z " fill="#1A1B17" transform="translate(618,568)"/>
<path d="M0 0 C0.99 0 1.98 0 3 0 C2.67 2.64 2.34 5.28 2 8 C1.01 8.33 0.02 8.66 -1 9 C-0.67 6.03 -0.34 3.06 0 0 Z " fill="#21221D" transform="translate(277,490)"/>
<path d="M0 0 C3.3 0.33 6.6 0.66 10 1 C10 1.99 10 2.98 10 4 C7.03 3.67 4.06 3.34 1 3 C0.67 2.01 0.34 1.02 0 0 Z " fill="#EAE6DA" transform="translate(918,348)"/>
<path d="M0 0 C0.33 0 0.66 0 1 0 C1.33 3.96 1.66 7.92 2 12 C1.01 12.33 0.02 12.66 -1 13 C-0.67 8.71 -0.34 4.42 0 0 Z " fill="#E9E6DC" transform="translate(331,467)"/>
<path d="M0 0 C1 3 1 3 0 6 C0 7.32 0 8.64 0 10 C-0.99 10 -1.98 10 -3 10 C-2.88637738 8.5199159 -2.75877092 7.04089926 -2.625 5.5625 C-2.55539062 4.73878906 -2.48578125 3.91507812 -2.4140625 3.06640625 C-2.27742187 2.38449219 -2.14078125 1.70257813 -2 1 C-1.34 0.67 -0.68 0.34 0 0 Z " fill="#1C1D18" transform="translate(554,456)"/>
<path d="M0 0 C1.10844919 3.32534757 0.84454356 5.62182575 0 9 C-0.99 9 -1.98 9 -3 9 C-2.4140625 2.84765625 -2.4140625 2.84765625 -2 1 C-1.34 0.67 -0.68 0.34 0 0 Z " fill="#1E1D19" transform="translate(569,377)"/>
<path d="M0 0 C0.66 0.33 1.32 0.66 2 1 C1.67 2.98 1.34 4.96 1 7 C0.34 7 -0.32 7 -1 7 C-1 7.99 -1 8.98 -1 10 C-1.66 10 -2.32 10 -3 10 C-2.69201674 8.51988629 -2.378482 7.04092675 -2.0625 5.5625 C-1.88847656 4.73878906 -1.71445312 3.91507812 -1.53515625 3.06640625 C-1 1 -1 1 0 0 Z " fill="#1F1F1A" transform="translate(877,431)"/>
<path d="M0 0 C0.33 0 0.66 0 1 0 C1.66 3.96 2.32 7.92 3 12 C2.01 12 1.02 12 0 12 C0 8.04 0 4.08 0 0 Z " fill="#24241F" transform="translate(396,419)"/>
<path d="M0 0 C0.33 0 0.66 0 1 0 C1.33 3.96 1.66 7.92 2 12 C1.01 12.33 0.02 12.66 -1 13 C-0.67 8.71 -0.34 4.42 0 0 Z " fill="#E7E3D9" transform="translate(686,397)"/>
<path d="M0 0 C2.1991413 4.39828259 2.51855059 7.18550592 3 12 C2.01 12 1.02 12 0 12 C0 8.04 0 4.08 0 0 Z " fill="#20201A" transform="translate(390,391)"/>
<path d="M0 0 C0.33 0.66 0.66 1.32 1 2 C-1.75 3.625 -1.75 3.625 -5 5 C-7.375 4.1875 -7.375 4.1875 -9 3 C-9 2.67 -9 2.34 -9 2 C-6.03 1.34 -3.06 0.68 0 0 Z " fill="#E4E1D6" transform="translate(486,569)"/>
<path d="M0 0 C0.33 0 0.66 0 1 0 C1.33 3.3 1.66 6.6 2 10 C1.01 10 0.02 10 -1 10 C-1.125 3.375 -1.125 3.375 0 0 Z " fill="#E7E3D8" transform="translate(422,449)"/>
<path d="M0 0 C2 2 2 2 2.125 5.625 C2.08375 6.73875 2.0425 7.8525 2 9 C1.01 9 0.02 9 -1 9 C-0.67 6.03 -0.34 3.06 0 0 Z " fill="#21221C" transform="translate(888,372)"/>
<path d="M0 0 C-0.33 0.66 -0.66 1.32 -1 2 C-3.64860427 2.59355614 -6.29197322 2.74209269 -9 3 C-8.67 2.01 -8.34 1.02 -8 0 C-4.71303767 -0.79953138 -3.28976808 -1.09658936 0 0 Z " fill="#E9E6D9" transform="translate(175,593)"/>
<path d="M0 0 C0.66 0.99 1.32 1.98 2 3 C1.125 6.1875 1.125 6.1875 0 9 C-0.33 9 -0.66 9 -1 9 C-1.33 6.69 -1.66 4.38 -2 2 C-1.34 2 -0.68 2 0 2 C0 1.34 0 0.68 0 0 Z " fill="#E8E5DB" transform="translate(475,463)"/>
<path d="M0 0 C0.33 0 0.66 0 1 0 C1.33 3.3 1.66 6.6 2 10 C1.01 10 0.02 10 -1 10 C-0.67 6.7 -0.34 3.4 0 0 Z " fill="#2B2924" transform="translate(545,454)"/>
<path d="M0 0 C2 2 2 2 2.125 4.625 C2.08375 5.40875 2.0425 6.1925 2 7 C1.01 7.495 1.01 7.495 0 8 C-0.38063221 5.6739143 -0.71269945 3.33944736 -1 1 C-0.67 0.67 -0.34 0.34 0 0 Z " fill="#E8E5DB" transform="translate(92,390)"/>
<path d="M0 0 C2.31 0 4.62 0 7 0 C7 0.99 7 1.98 7 3 C4.36 3 1.72 3 -1 3 C-0.67 2.01 -0.34 1.02 0 0 Z " fill="#23231D" transform="translate(337,349)"/>
<path d="M0 0 C2 2 2 2 2.125 5.125 C2.08375 6.07375 2.0425 7.0225 2 8 C1.01 8 0.02 8 -1 8 C-0.67 5.36 -0.34 2.72 0 0 Z " fill="#23231E" transform="translate(560,414)"/>
<path d="M0 0 C0.99 0 1.98 0 3 0 C2.42655063 2.86724686 2.1385485 3.8614515 0 6 C-0.99 5.67 -1.98 5.34 -3 5 C-1.6875 2.5 -1.6875 2.5 0 0 Z " fill="#1F201B" transform="translate(193,413)"/>
<path d="M0 0 C0.66 0.33 1.32 0.66 2 1 C2 2.98 2 4.96 2 7 C1.01 6.67 0.02 6.34 -1 6 C-0.67 4.02 -0.34 2.04 0 0 Z " fill="#1C1D17" transform="translate(565,391)"/>
<path d="M0 0 C2.31 0.66 4.62 1.32 7 2 C6.67 2.66 6.34 3.32 6 4 C3.69 3.67 1.38 3.34 -1 3 C-0.67 2.01 -0.34 1.02 0 0 Z " fill="#21211C" transform="translate(509,204)"/>
</svg>
